 <svg version="1.0" xmlns="http://www.w3.org/2000/svg" width="700.000000pt" height="390.000000pt" viewBox="0 0 700.000000 390.000000" preserveAspectRatio="xMidYMid meet">
<metadata>
Created by potrace 1.12, written by Peter Selinger 2001-2015
</metadata>
<g transform="translate(0.000000,390.000000) scale(0.100000,-0.100000)" fill="#000000" stroke="none">
<path d="M253 3670 c-14 -6 -24 -21 -28 -42 -3 -18 -4 -785 -3 -1705 2 -1356
5 -1674 16 -1685 19 -19 6505 -19 6524 0 19 19 19 3405 0 3424 -11 11 -609 13
-3250 15 -1863 1 -3246 -2 -3259 -7z m307 -280 c0 -36 5 -52 18 -59 13 -8 9
-10 -23 -10 -22 0 -34 3 -27 6 7 3 12 24 12 53 0 29 -5 50 -12 53 -7 3 -3 6
10 6 20 1 22 -4 22 -49z m2027 -13 l-2 -52 -35 0 c-32 0 -35 3 -38 33 -3 29 0
35 27 45 17 6 31 17 31 25 0 7 4 11 10 7 5 -3 8 -29 7 -58z m466 53 c-13 -5
-23 -16 -23 -25 0 -8 10 -16 23 -16 l22 -2 -22 -4 c-18 -3 -23 -11 -23 -34 0
-16 -4 -29 -10 -29 -5 0 -10 14 -10 30 0 22 -5 30 -17 31 -12 0 -13 2 -5 6 7
3 17 16 22 29 7 18 17 24 37 23 27 0 27 -1 6 -9z m842 0 c3 -5 -1 -10 -9 -10
-9 0 -16 5 -16 10 0 6 4 10 9 10 6 0 13 -4 16 -10z m575 -5 c-16 -19 -15 -116
2 -126 7 -4 9 -11 5 -15 -12 -13 -37 18 -37 47 0 16 -5 29 -12 29 -9 0 -9 3 0
12 7 7 12 22 12 33 0 25 8 35 28 35 12 0 12 -3 2 -15z m-3415 -27 c0 -14 3
-29 7 -33 15 -16 -13 -45 -42 -45 -30 0 -30 1 -30 56 l0 55 33 -3 c27 -3 32
-7 32 -30z m485 22 c0 -5 -7 -7 -15 -4 -23 9 -45 -15 -45 -47 0 -16 2 -29 4
-29 2 0 11 -3 20 -6 11 -4 16 0 16 14 0 11 -6 23 -12 25 -7 3 -3 6 10 6 18 1
22 -4 22 -29 0 -26 -4 -30 -28 -30 -34 0 -52 16 -52 48 0 40 18 62 50 62 17 0
30 -4 30 -10z m720 0 c0 -5 9 -10 20 -10 11 0 20 -4 20 -10 0 -5 -9 -10 -21
-10 -16 0 -20 -5 -17 -27 2 -20 8 -28 21 -27 9 1 17 -2 17 -7 0 -5 -11 -9 -24
-9 -24 0 -36 16 -36 50 0 10 -5 20 -12 22 -9 3 -8 9 2 21 17 19 30 22 30 7z
m590 3 c-41 -8 -44 -20 -11 -38 44 -22 40 -59 -6 -63 -18 -2 -33 1 -33 6 0 5
10 8 21 8 32 -1 35 22 5 35 -25 12 -34 38 -19 52 3 4 20 6 37 6 27 -2 28 -2 6
-6z m270 -2 c0 -5 10 -12 23 -16 l22 -8 -22 -4 c-17 -3 -23 -11 -23 -29 0 -16
8 -28 23 -34 20 -9 19 -9 -8 -7 -25 2 -31 7 -33 32 -2 16 -9 33 -14 36 -7 5
-6 12 3 23 16 17 29 21 29 7z m490 0 c-14 -4 -25 -13 -25 -21 0 -8 11 -17 25
-21 25 -7 25 -7 -3 -8 -36 -1 -34 -32 3 -42 23 -6 22 -7 -7 -8 l-33 -1 0 55 0
55 33 -1 c29 -1 30 -2 7 -8z m-3125 -20 c3 -5 -5 -11 -17 -13 -33 -4 -33 -54
0 -51 12 2 22 -2 22 -7 0 -14 -44 -12 -58 2 -7 7 -12 22 -12 35 0 31 50 58 65
34z m179 3 c11 -4 16 -19 16 -46 0 -38 -1 -39 -32 -36 -25 2 -33 8 -33 23 0
13 8 21 23 23 27 4 29 22 2 22 -11 0 -20 5 -20 10 0 11 20 13 44 4z m106 -4
c0 -5 -9 -10 -20 -10 -11 0 -20 -4 -20 -10 0 -5 6 -10 13 -10 23 0 38 -22 26
-37 -13 -15 -59 -18 -59 -4 0 5 8 7 19 4 29 -7 34 13 6 25 -27 12 -33 37 -12
45 21 9 47 7 47 -3z m95 1 c3 -5 -7 -11 -22 -13 l-28 -4 28 -12 c40 -17 33
-46 -12 -50 -21 -2 -31 0 -27 7 4 6 13 8 20 5 8 -3 17 -1 21 5 3 6 -5 15 -19
21 -29 11 -32 20 -14 38 14 14 44 16 53 3z m294 -16 c3 -17 1 -17 -12 -6 -22
18 -37 6 -37 -30 0 -16 -4 -29 -10 -29 -5 0 -10 19 -10 43 0 42 1 43 32 42 24
0 34 -5 37 -20z m45 -7 l14 -33 12 33 c7 17 16 32 21 32 13 0 12 -3 -15 -63
-26 -60 -42 -75 -59 -58 -8 8 -7 11 5 11 23 0 27 20 11 57 -7 18 -13 37 -13
43 0 19 10 10 24 -22z m134 20 c7 -7 12 -27 12 -45 0 -31 -2 -33 -34 -33 -36
0 -53 19 -33 39 6 6 19 11 29 11 10 0 18 5 18 10 0 6 -12 10 -26 10 -14 0 -23
4 -19 10 8 14 38 13 53 -2z m100 -35 c2 -26 -1 -43 -7 -43 -6 0 -11 16 -11 36
0 45 -24 42 -28 -4 -5 -47 -22 -39 -22 11 0 42 1 43 33 42 31 0 32 -2 35 -42z
m148 -22 c7 -22 32 6 37 42 3 25 4 21 5 -14 2 -46 2 -46 -30 -45 -28 1 -33 5
-36 29 -2 16 0 36 4 45 6 13 9 10 11 -13 2 -16 6 -36 9 -44z m132 56 c14 -10
16 -77 2 -77 -5 0 -10 16 -10 35 0 24 -5 35 -15 35 -10 0 -15 -10 -15 -29 0
-17 -4 -33 -10 -36 -6 -4 -10 11 -10 37 0 39 3 44 23 43 12 0 28 -4 35 -8z
m97 -3 c22 -22 14 -38 -21 -44 -20 -4 -25 -8 -16 -14 7 -4 19 -5 27 -2 8 3 15
1 15 -4 0 -14 -44 -12 -58 2 -18 18 -15 55 6 67 23 14 28 14 47 -5z m103 -2
c2 -8 -5 -11 -20 -10 -19 3 -23 -2 -26 -29 -5 -48 -22 -40 -22 10 0 41 1 43
32 42 17 0 33 -6 36 -13z m180 6 c22 -22 14 -48 -14 -48 -15 0 -23 -4 -19 -10
4 -6 15 -8 26 -5 11 4 19 2 19 -5 0 -7 -13 -10 -32 -8 -28 2 -34 8 -36 31 -5
46 28 73 56 45z m62 -5 c10 -17 10 -17 20 0 6 9 16 17 22 17 6 0 4 -10 -5 -24
-14 -21 -14 -26 -1 -45 16 -22 6 -29 -14 -9 -9 9 -15 9 -24 0 -21 -21 -31 -13
-15 12 14 21 14 26 2 36 -8 7 -15 16 -15 21 0 15 19 10 30 -8z m230 2 c18 -22
4 -45 -27 -45 -24 -1 -25 -2 -10 -11 9 -5 22 -7 27 -4 6 3 10 1 10 -4 0 -15
-43 -14 -58 1 -17 17 -15 44 4 62 19 20 38 20 54 1z m98 -32 c2 -26 -1 -43 -7
-43 -6 0 -11 16 -11 36 0 45 -24 42 -28 -4 -5 -47 -22 -39 -22 11 0 42 1 43
33 42 31 0 32 -2 35 -42z m182 38 c0 -5 -10 -11 -22 -14 -22 -3 -22 -4 5 -15
39 -16 33 -46 -11 -50 -19 -2 -32 1 -32 8 0 7 8 9 19 5 11 -3 22 -1 26 5 3 5
2 10 -2 10 -5 0 -18 6 -28 14 -16 12 -17 16 -6 30 14 17 51 22 51 7z m290 -5
c16 -20 9 -56 -12 -70 -40 -24 -80 44 -42 71 23 17 39 16 54 -1z m230 -24 l1
-27 13 24 c13 23 14 23 24 5 11 -18 11 -18 12 3 0 12 5 25 12 29 8 5 9 -5 4
-37 -8 -52 -14 -59 -30 -37 -11 15 -13 15 -23 0 -14 -22 -19 -16 -28 37 -5 31
-4 42 4 37 6 -4 11 -19 11 -34z m148 26 c7 -7 12 -27 12 -45 0 -31 -2 -33 -34
-33 -19 0 -37 4 -40 9 -11 18 6 41 30 41 13 0 24 5 24 10 0 6 -12 10 -26 10
-14 0 -23 4 -19 10 8 14 38 13 53 -2z m103 -5 c10 -10 6 -12 -17 -10 -26 2
-29 -1 -32 -30 -2 -18 -7 -33 -13 -33 -9 0 -13 72 -4 81 9 9 54 4 66 -8z m89
2 c18 -22 4 -45 -27 -45 -24 -1 -25 -2 -10 -11 9 -5 22 -7 27 -4 6 3 10 1 10
-4 0 -15 -43 -14 -58 1 -17 17 -15 44 4 62 19 20 38 20 54 1z m188 2 c14 -10
16 -77 2 -77 -5 0 -10 16 -10 36 0 49 -32 44 -41 -6 -6 -34 -6 -33 -8 10 -1
41 1 46 22 45 12 0 28 -4 35 -8z m107 -9 c-8 -26 -34 -50 -46 -42 -5 3 -9 0
-9 -5 0 -6 11 -11 24 -11 14 0 28 -5 31 -10 11 -18 -17 -41 -44 -38 -24 3 -26
7 -28 53 -1 59 9 75 49 75 26 0 29 -3 23 -22z m67 -15 c-2 -22 2 -34 15 -42
15 -9 11 -10 -22 -10 -32 0 -36 2 -22 10 21 12 23 59 2 59 -8 0 -15 5 -15 11
0 6 10 9 23 7 18 -2 21 -8 19 -35z m115 -13 c1 -41 1 -42 -5 -10 -9 46 -36 47
-40 3 -5 -46 -22 -41 -22 5 0 46 2 49 38 48 25 -1 27 -4 29 -46z m93 35 c18
-22 4 -45 -27 -45 -24 -1 -25 -2 -10 -11 9 -5 22 -7 27 -4 6 3 10 1 10 -4 0
-6 -11 -11 -25 -11 -37 0 -55 42 -30 70 22 24 38 25 55 5z m95 -1 c22 -22 14
-38 -21 -44 -20 -4 -25 -8 -16 -14 7 -4 19 -5 27 -2 8 3 15 1 15 -4 0 -14 -44
-12 -58 2 -18 18 -15 55 6 67 23 14 28 14 47 -5z m103 -2 c2 -8 -5 -11 -20
-10 -19 3 -23 -2 -26 -29 -5 -48 -22 -40 -22 10 0 41 1 43 32 42 17 0 33 -6
36 -13z m-2488 -165 c0 -2 -7 -19 -17 -37 -12 -26 -14 -39 -6 -59 29 -73 29
-68 5 -47 -30 26 -37 68 -17 111 10 19 21 35 26 35 5 0 9 -2 9 -3z m480 -18
c0 -5 -4 -9 -10 -9 -5 0 -10 7 -10 16 0 8 5 12 10 9 6 -3 10 -10 10 -16z m454
-1 c29 -41 11 -138 -25 -138 -6 0 -3 10 5 22 9 12 16 38 16 58 0 20 -7 46 -16
58 -8 12 -11 22 -5 22 5 0 17 -10 25 -22z m205 6 c-17 -20 -15 -109 2 -130 12
-14 11 -16 -6 -13 -14 3 -21 14 -23 34 -2 16 -11 34 -19 40 -14 11 -14 12 1
18 9 4 16 17 16 30 0 27 7 37 28 37 12 0 12 -3 1 -16z m-1899 -27 c12 -4 11
-6 -2 -6 -24 -1 -26 -61 -2 -61 8 0 13 -4 10 -9 -3 -5 -15 -7 -26 -4 -15 4
-20 14 -20 39 0 24 -5 34 -15 34 -12 0 -12 3 3 19 13 14 19 15 27 6 6 -6 17
-14 25 -18z m380 0 c12 -4 11 -6 -2 -6 -24 -1 -26 -61 -2 -61 8 0 13 -4 10 -9
-3 -5 -15 -7 -26 -4 -15 4 -20 14 -20 39 0 25 -5 34 -17 35 -17 1 -17 2 0 6 9
2 17 12 17 21 1 15 2 16 13 1 7 -9 19 -18 27 -22z m1120 18 c0 -8 10 -16 23
-16 l22 -2 -22 -4 c-18 -3 -23 -11 -23 -34 0 -23 4 -29 23 -29 20 -1 20 -2 4
-11 -25 -15 -47 5 -47 42 0 16 -6 29 -12 30 -10 0 -10 2 0 6 6 2 12 11 12 19
0 8 5 14 10 14 6 0 10 -7 10 -15z m-1890 -24 c-18 -5 -25 -14 -25 -31 0 -17 7
-26 25 -31 23 -6 23 -7 -7 -8 -27 -1 -34 3 -39 24 -8 32 11 55 45 54 l26 -1
-25 -7z m118 -28 c2 -23 -2 -34 -15 -41 -27 -15 -63 3 -63 31 0 31 19 48 50
45 20 -2 26 -9 28 -35z m90 -5 c2 -22 -1 -38 -7 -38 -6 0 -11 16 -11 36 0 45
-24 42 -28 -4 -5 -46 -22 -39 -22 9 0 39 1 40 33 37 29 -3 32 -6 35 -40z m75
35 c-30 -6 -29 -17 2 -31 14 -6 25 -16 25 -21 0 -17 -34 -29 -55 -20 -17 6
-15 8 10 9 28 1 29 1 11 15 -10 8 -24 16 -29 18 -23 7 3 37 30 36 24 -2 25 -2
6 -6z m217 -9 c0 -13 -3 -14 -15 -4 -20 17 -35 4 -35 -31 0 -16 -4 -29 -10
-29 -5 0 -10 18 -10 40 0 39 1 40 35 40 26 0 35 -4 35 -16z m40 -20 c0 -45 24
-42 28 4 5 46 22 39 22 -9 0 -39 -1 -40 -32 -37 -30 3 -33 6 -36 41 -2 21 1
37 7 37 6 0 11 -16 11 -36z m130 27 c-17 -5 -26 -15 -28 -33 -3 -23 1 -27 25
-30 18 -2 23 -5 13 -9 -29 -12 -60 8 -60 39 0 36 6 42 44 41 29 -1 30 -1 6 -8z
m208 -26 c6 -53 -61 -71 -74 -19 -8 32 13 56 45 52 20 -2 27 -9 29 -33z m97
24 c4 -6 4 -13 0 -17 -3 -3 -10 0 -15 8 -12 19 -38 -3 -43 -38 -3 -18 -4 -13
-6 16 -1 40 0 42 28 42 17 0 33 -5 36 -11z m381 -14 c7 -28 -18 -65 -43 -65
-7 0 -13 -7 -13 -15 0 -8 -4 -15 -10 -15 -6 0 -10 27 -10 60 l0 60 35 0 c29 0
36 -4 41 -25z m94 9 c0 -13 -3 -14 -15 -4 -20 17 -35 4 -35 -31 0 -16 -4 -29
-10 -29 -5 0 -10 18 -10 40 0 39 1 40 35 40 26 0 35 -4 35 -16z m95 -4 c14
-45 -18 -80 -56 -60 -19 10 -27 59 -12 73 15 16 62 7 68 -13z m85 -28 c0 -26
-5 -53 -12 -60 -14 -14 -48 -16 -48 -3 0 5 8 8 18 7 13 -1 18 8 20 46 3 42 1
47 -20 51 -17 3 -15 5 10 6 32 1 32 1 32 -47z m104 32 c11 -28 7 -34 -25 -34
-17 0 -28 -4 -24 -10 3 -5 16 -10 28 -10 16 0 18 -3 9 -12 -18 -18 -62 6 -62
35 0 13 5 28 12 35 17 17 55 15 62 -4z m76 7 c-18 -5 -25 -14 -25 -31 0 -17 7
-26 25 -30 22 -5 23 -7 7 -13 -26 -10 -57 10 -57 36 0 30 18 47 50 46 l25 -1
-25 -7z m-876 -177 c12 -4 16 -20 16 -55 0 -27 5 -49 10 -49 6 0 10 -4 10 -10
0 -5 -17 -10 -37 -10 -34 1 -36 2 -20 14 19 14 25 96 7 96 -5 0 -10 5 -10 10
0 12 3 12 24 4z m100 0 c12 -4 16 -20 16 -55 0 -27 5 -49 10 -49 6 0 10 -4 10
-10 0 -5 -16 -10 -35 -10 -19 0 -35 5 -35 10 0 6 7 10 15 10 11 0 15 12 15 45
0 34 -4 45 -16 45 -8 0 -12 5 -9 10 7 12 8 12 29 4z m496 -4 c0 -5 -4 -10 -10
-10 -15 0 -13 -127 3 -133 6 -2 9 -8 5 -12 -4 -4 -14 -5 -23 -2 -12 5 -15 23
-15 80 0 41 3 77 7 80 10 11 33 8 33 -3z m-1265 -19 c-5 -15 -2 -18 13 -14 26
6 35 -11 28 -53 -9 -46 -26 -44 -19 2 5 29 3 36 -8 32 -8 -2 -18 -19 -24 -36
-8 -30 -25 -44 -25 -22 0 29 23 110 32 110 5 0 7 -9 3 -19z m125 9 c0 -5 -4
-10 -10 -10 -5 0 -10 5 -10 10 0 6 5 10 10 10 6 0 10 -4 10 -10z m340 -22 c0
-29 1 -30 18 -15 29 27 49 21 24 -6 l-22 -23 22 -22 c14 -14 17 -22 9 -22 -7
0 -21 10 -32 23 l-18 22 -1 -22 c0 -13 -4 -23 -10 -23 -6 0 -10 27 -10 60 0
33 4 60 10 60 6 0 10 -14 10 -32z m120 22 c0 -5 -4 -10 -10 -10 -5 0 -10 5
-10 10 0 6 5 10 10 10 6 0 10 -4 10 -10z m860 -10 c0 -11 -4 -20 -10 -20 -5 0
-10 9 -10 20 0 11 5 20 10 20 6 0 10 -9 10 -20z m110 10 c0 -5 -4 -10 -10 -10
-5 0 -10 5 -10 10 0 6 5 10 10 10 6 0 10 -4 10 -10z m650 0 c0 -5 -4 -10 -10
-10 -5 0 -10 5 -10 10 0 6 5 10 10 10 6 0 10 -4 10 -10z m290 -4 c0 -8 -4 -18
-10 -21 -5 -3 -10 3 -10 14 0 12 5 21 10 21 6 0 10 -6 10 -14z m280 -6 c0 -11
-4 -20 -10 -20 -5 0 -10 9 -10 20 0 11 5 20 10 20 6 0 10 -9 10 -20z m570 -1
c0 -11 -4 -17 -10 -14 -5 3 -10 13 -10 21 0 8 5 14 10 14 6 0 10 -9 10 -21z
m290 1 c0 -11 -4 -20 -10 -20 -5 0 -10 9 -10 20 0 11 5 20 10 20 6 0 10 -9 10
-20z m310 -38 c0 -59 0 -59 -30 -60 -54 -1 -66 71 -14 84 13 3 24 12 24 20 0
8 5 14 10 14 6 0 10 -26 10 -58z m260 38 c0 -11 -4 -20 -10 -20 -5 0 -10 9
-10 20 0 11 5 20 10 20 6 0 10 -9 10 -20z m290 6 c0 -8 -4 -18 -10 -21 -5 -3
-10 3 -10 14 0 12 5 21 10 21 6 0 10 -6 10 -14z m760 -6 c0 -11 -4 -20 -10
-20 -5 0 -10 9 -10 20 0 11 5 20 10 20 6 0 10 -9 10 -20z m-5335 1 c-3 -5 5
-11 17 -14 22 -3 22 -4 3 -12 -35 -15 -49 -55 -20 -55 8 0 15 -5 15 -11 0 -6
-10 -9 -22 -7 -19 2 -23 8 -20 36 1 17 -2 32 -8 32 -5 0 -10 5 -10 10 0 6 7
10 15 10 8 0 15 5 15 10 0 6 5 10 11 10 5 0 8 -4 4 -9z m2465 0 c0 -5 10 -12
23 -14 l22 -4 -22 -8 c-15 -5 -23 -15 -23 -30 0 -17 7 -25 23 -28 19 -3 20 -4
4 -11 -23 -11 -47 10 -47 39 0 13 -5 25 -12 27 -9 3 -8 9 2 21 17 18 30 22 30
8z m860 -1 c0 -5 7 -10 15 -10 8 0 15 -4 15 -10 0 -5 -7 -10 -15 -10 -9 0 -15
-9 -15 -25 0 -16 6 -25 15 -25 8 0 15 -5 15 -11 0 -6 -10 -9 -22 -7 -17 2 -24
11 -26 33 -2 16 -11 35 -20 42 -16 11 -16 12 1 13 9 0 17 5 17 10 0 6 5 10 10
10 6 0 10 -4 10 -10z m-3136 -48 c-2 -23 2 -32 14 -32 12 0 13 -3 5 -11 -21
-21 -43 -3 -37 31 5 24 3 30 -10 30 -10 0 -14 5 -11 11 4 5 14 9 23 7 12 -3
17 -13 16 -36z m121 28 c4 -6 -6 -10 -22 -10 l-28 0 24 -19 c32 -24 22 -51
-19 -51 -16 0 -30 5 -30 10 0 6 11 10 25 10 14 0 25 5 25 10 0 6 -6 10 -14 10
-22 0 -30 19 -16 35 14 17 46 20 55 5z m185 1 c0 -5 -10 -11 -22 -14 -22 -3
-22 -4 5 -15 15 -6 27 -15 27 -20 0 -15 -24 -32 -47 -32 -32 0 -29 18 5 22
l27 4 -27 12 c-27 11 -36 31 -21 45 10 10 53 8 53 -2z m172 -28 c-3 -25 0 -33
12 -33 9 0 16 -4 16 -10 0 -5 -16 -10 -35 -10 -19 0 -35 5 -35 10 0 6 5 10 10
10 6 0 10 11 10 25 0 14 -4 25 -10 25 -5 0 -10 5 -10 11 0 6 10 9 23 7 18 -2
21 -8 19 -35z m308 27 c0 -5 -10 -10 -22 -10 l-23 0 24 -19 c16 -12 22 -24 18
-35 -7 -18 -52 -22 -62 -6 -4 6 6 10 22 10 l28 0 -24 19 c-30 23 -22 51 14 51
14 0 25 -4 25 -10z m658 -47 c-3 -57 -4 -58 -33 -60 -20 -1 -23 0 -7 4 19 4
22 11 22 49 0 32 -4 44 -14 44 -8 0 -18 5 -21 10 -4 6 7 10 25 10 l31 0 -3
-57z m95 50 c3 -5 7 -24 9 -43 3 -34 2 -35 -32 -35 -48 0 -53 29 -8 49 l33 14
-27 1 c-16 1 -28 6 -28 11 0 12 47 14 53 3z m59 -25 l12 -33 13 33 c20 49 34
38 15 -13 -9 -25 -21 -45 -27 -45 -6 0 -18 20 -27 45 -10 26 -13 45 -7 45 6 0
15 -15 21 -32z m137 18 c7 -8 11 -27 9 -43 -3 -25 -7 -28 -38 -28 -48 0 -53
29 -8 49 l33 14 -27 1 c-16 1 -28 6 -28 11 0 15 46 12 59 -4z m91 5 c0 -5 -10
-11 -22 -14 -22 -3 -22 -4 5 -15 39 -16 33 -46 -11 -50 -18 -2 -32 1 -32 7 0
6 12 11 28 11 l27 1 -28 20 c-22 17 -25 24 -16 35 13 16 49 19 49 5z m100 -1
c0 -5 -9 -10 -19 -10 -20 0 -35 -25 -25 -41 3 -5 14 -9 25 -9 10 0 19 -4 19
-10 0 -11 -20 -13 -44 -4 -19 7 -21 55 -4 72 15 15 48 16 48 2z m100 -5 c9
-11 6 -14 -17 -12 -25 2 -28 -2 -31 -30 -5 -49 -22 -40 -22 10 0 42 2 44 29
45 16 0 35 -6 41 -13z m70 -16 c0 -19 7 -37 18 -45 15 -12 13 -13 -20 -14 -21
0 -38 5 -38 10 0 6 5 10 10 10 6 0 10 11 10 25 0 14 -4 25 -10 25 -5 0 -10 5
-10 10 0 6 9 10 20 10 16 0 20 -7 20 -31z m121 10 c14 -28 2 -58 -27 -65 -13
-3 -24 -12 -24 -20 0 -8 -4 -14 -10 -14 -6 0 -10 26 -10 58 0 59 0 59 30 60
20 0 33 -6 41 -19z m572 7 c4 -11 -1 -14 -21 -13 -23 2 -28 -3 -33 -33 -4 -19
-7 -33 -9 -30 -6 14 -10 64 -7 74 7 17 64 19 70 2z m85 2 c20 -20 14 -38 -13
-38 -14 0 -25 -4 -25 -10 0 -5 12 -10 26 -10 14 0 23 -4 19 -10 -11 -17 -54
-11 -65 9 -14 27 -13 37 6 55 19 19 36 20 52 4z m100 -33 c3 -39 2 -41 -28
-43 -37 -3 -53 24 -25 44 10 7 22 11 26 8 5 -3 9 0 9 5 0 6 -9 11 -20 11 -11
0 -20 5 -20 11 0 6 12 9 28 7 24 -3 27 -8 30 -43z m97 35 c3 -6 -5 -10 -18
-10 -46 0 -43 -44 3 -52 23 -4 23 -5 6 -13 -38 -17 -73 37 -46 71 14 16 46 19
55 4z m575 -5 c9 -11 6 -14 -17 -12 -25 2 -28 -2 -31 -30 -5 -49 -22 -40 -22
10 0 42 2 44 29 45 16 0 35 -6 41 -13z m88 3 c21 -21 13 -38 -18 -38 -16 0
-30 -4 -30 -10 0 -5 11 -10 25 -10 14 0 25 -4 25 -10 0 -14 -43 -13 -58 2 -26
26 -7 78 28 78 9 0 21 -5 28 -12z m160 -56 c11 2 19 16 23 38 4 26 7 31 13 18
15 -32 3 -71 -23 -75 -31 -4 -51 13 -51 47 0 42 15 46 18 5 3 -28 7 -35 20
-33z m87 51 c6 -17 7 -17 21 1 18 25 29 14 13 -12 -10 -17 -10 -23 1 -36 7 -9
10 -19 6 -23 -3 -4 -12 2 -20 12 -13 18 -13 18 -24 -1 -6 -10 -13 -16 -17 -12
-3 3 -1 15 7 27 10 16 10 23 0 33 -14 14 -16 28 -3 28 5 0 12 -8 16 -17z m513
5 c21 -21 13 -38 -18 -38 -16 0 -30 -4 -30 -10 0 -5 11 -10 25 -10 14 0 25 -5
25 -11 0 -16 -52 -6 -63 13 -25 39 29 88 61 56z m59 -3 c5 -14 8 -14 24 1 22
20 25 13 7 -16 -10 -15 -9 -23 6 -39 11 -12 14 -21 9 -21 -6 0 -16 7 -24 16
-12 14 -14 14 -26 -2 -17 -24 -28 -11 -11 15 10 16 10 23 0 33 -6 6 -12 16
-12 20 0 14 20 8 27 -7z m141 -18 c4 -33 -13 -57 -38 -57 -10 0 -21 -8 -23
-17 -3 -10 -5 9 -6 43 l-1 61 33 -1 c27 -1 32 -5 35 -29z m95 19 c4 -11 -1
-14 -21 -13 -24 2 -27 -2 -30 -31 -4 -41 -22 -32 -22 12 0 40 1 41 38 44 18 1
32 -3 35 -12z m85 2 c21 -21 13 -38 -18 -38 -16 0 -30 -4 -30 -10 0 -5 14 -10
32 -10 23 0 29 -3 21 -11 -15 -15 -54 -7 -66 13 -25 39 29 88 61 56z m97 3
c-6 -5 -19 -11 -30 -13 -18 -4 -17 -6 8 -16 39 -16 33 -46 -11 -50 -18 -2 -32
1 -32 7 0 6 12 11 28 11 l27 1 -28 20 c-22 17 -25 24 -16 35 6 8 23 14 37 14
16 0 22 -4 17 -9z m95 0 c0 -5 -10 -11 -22 -14 -22 -3 -22 -4 -3 -12 43 -18
35 -55 -11 -55 -33 0 -30 18 4 22 l27 4 -27 12 c-27 11 -36 31 -21 45 10 10
53 8 53 -2z m-4102 -18 c-10 -2 -28 -2 -40 0 -13 2 -5 4 17 4 22 1 32 -1 23
-4z m0 -30 c-10 -2 -28 -2 -40 0 -13 2 -5 4 17 4 22 1 32 -1 23 -4z m-768 -18
c0 -8 -4 -15 -9 -15 -13 0 -22 16 -14 24 11 11 23 6 23 -9z m2286 0 c8 -19
-13 -45 -34 -45 -12 0 -13 3 -4 12 7 7 12 20 12 30 0 22 18 24 26 3z m854 -10
c0 -14 -2 -25 -4 -25 -2 0 -13 -3 -23 -7 -15 -6 -16 -4 -5 9 7 9 12 20 11 24
-3 16 1 24 11 24 6 0 10 -11 10 -25z m857 9 c6 -17 -22 -52 -34 -40 -4 4 -2
11 5 15 7 4 10 15 6 24 -3 10 -1 17 5 17 7 0 14 -7 18 -16z m1049 1 c8 -19
-13 -45 -34 -45 -12 0 -13 3 -4 12 7 7 12 20 12 30 0 22 18 24 26 3z m-5806
-119 c0 -8 -4 -18 -10 -21 -5 -3 -10 -4 -10 -1 0 2 -3 11 -6 20 -4 11 -1 16
10 16 9 0 16 -6 16 -14z m310 -44 l0 -59 -35 -1 c-40 -2 -51 13 -41 53 4 15
16 27 31 31 14 3 25 12 25 20 0 8 5 14 10 14 6 0 10 -26 10 -58z m160 38 c0
-11 -4 -20 -10 -20 -5 0 -10 9 -10 20 0 11 5 20 10 20 6 0 10 -9 10 -20z m290
0 c0 -11 -4 -20 -10 -20 -5 0 -10 9 -10 20 0 11 5 20 10 20 6 0 10 -9 10 -20z
m350 0 c0 -12 6 -20 13 -19 32 4 37 -2 36 -43 l-2 -43 -6 35 c-8 46 -35 48
-39 3 -6 -57 -22 -36 -22 27 0 33 4 60 10 60 6 0 10 -9 10 -20z m310 0 c0 -11
-4 -20 -10 -20 -5 0 -10 9 -10 20 0 11 5 20 10 20 6 0 10 -9 10 -20z m290 0
c0 -11 -4 -20 -10 -20 -5 0 -10 9 -10 20 0 11 5 20 10 20 6 0 10 -9 10 -20z
m290 -34 c0 -34 5 -56 13 -59 6 -3 -6 -5 -28 -5 -22 0 -32 2 -22 5 13 3 17 15
17 53 0 38 -4 50 -17 53 -11 3 -7 5 10 6 26 1 27 0 27 -53z m90 34 c0 -11 -4
-20 -10 -20 -5 0 -10 9 -10 20 0 11 5 20 10 20 6 0 10 -9 10 -20z m200 -60 c0
-73 -2 -80 -20 -80 -11 0 -20 5 -20 10 0 6 5 10 10 10 15 0 13 127 -2 133 -7
3 -3 6 10 6 21 1 22 -2 22 -79z m-1260 61 c0 -5 10 -12 23 -16 l22 -8 -22 -4
c-17 -3 -23 -11 -23 -29 0 -16 8 -28 23 -34 20 -9 19 -9 -8 -7 -25 2 -31 7
-33 32 -2 16 -9 33 -14 36 -7 5 -6 12 3 23 16 17 29 21 29 7z m-922 -24 c14
-10 16 -77 2 -77 -5 0 -10 16 -10 36 0 28 -3 35 -17 32 -12 -2 -20 -16 -24
-38 l-5 -35 -5 43 c-2 24 -4 44 -2 45 5 6 49 1 61 -6z m96 -3 c31 -31 13 -74
-31 -74 -55 0 -47 83 9 89 4 1 14 -6 22 -15z m190 -6 c19 -27 12 -38 -22 -38
-28 0 -21 -15 13 -23 11 -3 4 -5 -15 -4 -31 2 -35 6 -38 32 -3 19 2 33 14 42
24 18 30 17 48 -9z m476 6 c6 -6 10 -24 8 -40 -2 -21 -10 -30 -28 -34 -14 -3
-25 -11 -25 -17 0 -6 -3 -15 -7 -19 -5 -4 -8 22 -8 57 0 62 1 65 25 64 13 0
29 -5 35 -11z m55 -16 l13 -33 11 28 c17 45 32 31 15 -15 -17 -49 -41 -78 -63
-78 -12 0 -10 5 7 18 22 17 22 19 7 55 -8 20 -15 41 -15 47 0 20 11 10 25 -22z
m319 19 c26 -19 18 -71 -12 -75 -46 -7 -67 35 -35 70 19 21 24 22 47 5z m105
-41 l-2 -41 -6 35 c-8 46 -35 48 -39 3 -5 -46 -22 -41 -22 6 0 33 4 40 23 43
39 7 47 -2 46 -46z m466 44 c3 -5 -3 -10 -14 -10 -28 0 -27 -13 2 -25 35 -16
28 -40 -13 -41 -26 -1 -28 -1 -7 3 34 5 35 16 2 31 -29 14 -32 27 -7 41 22 13
29 13 37 1z m106 0 c12 0 12 -107 -1 -115 -5 -3 -10 3 -10 14 0 14 -8 21 -27
23 -22 2 -29 9 -31 29 -4 30 23 63 45 55 8 -3 19 -6 24 -6z m-1353 -82 c-2
-13 -11 -24 -23 -26 -16 -3 -17 -1 -8 8 6 7 9 19 6 26 -3 9 1 14 12 14 11 0
15 -7 13 -22z m950 0 c-2 -14 -11 -24 -23 -26 -15 -2 -17 -1 -6 6 8 6 11 17 8
26 -4 10 -1 16 9 16 10 0 14 -8 12 -22z m-1061 -108 c-4 -15 0 -20 13 -20 26
0 33 -16 26 -56 -10 -50 -28 -43 -20 9 l7 42 -22 -19 c-11 -11 -21 -27 -21
-37 0 -10 -4 -21 -10 -24 -13 -8 -13 12 1 75 6 27 15 50 21 50 6 0 8 -9 5 -20z
m-82 -11 c-4 -5 4 -10 17 -10 l23 -2 -22 -4 c-13 -2 -23 -7 -23 -11 0 -4 -3
-17 -6 -29 -5 -17 -1 -22 18 -25 20 -4 21 -5 5 -12 -27 -12 -47 10 -40 45 3
18 1 29 -6 29 -6 0 -3 8 7 18 17 19 38 19 27 1z m205 11 c0 -5 -4 -10 -10 -10
-5 0 -10 5 -10 10 0 6 5 10 10 10 6 0 10 -4 10 -10z m575 0 c-3 -5 -10 -10
-16 -10 -5 0 -9 5 -9 10 0 6 7 10 16 10 8 0 12 -4 9 -10z m278 -21 l22 0 -22
-9 c-15 -6 -23 -18 -23 -34 0 -18 6 -26 23 -29 19 -3 20 -4 4 -11 -24 -11 -47
10 -47 45 0 16 -4 29 -10 29 -5 0 -2 9 8 20 14 17 18 18 20 5 2 -8 13 -15 25
-16z m677 21 c0 -5 -4 -10 -9 -10 -6 0 -13 5 -16 10 -3 6 1 10 9 10 9 0 16 -4
16 -10z m273 -21 l22 0 -22 -9 c-30 -12 -30 -48 -1 -59 15 -5 18 -10 9 -15
-22 -14 -41 2 -41 34 0 17 -6 33 -14 36 -12 5 -12 8 2 23 13 12 18 13 20 4 2
-7 13 -13 25 -14z m-1816 -34 c-5 -28 -2 -35 11 -35 12 0 13 -3 5 -11 -23 -23
-42 -3 -36 36 5 31 4 35 -12 29 -13 -5 -16 -4 -11 4 4 7 17 12 28 12 18 0 20
-4 15 -35z m123 24 c0 -6 -8 -8 -19 -4 -11 3 -22 1 -25 -4 -4 -5 3 -12 14 -16
29 -9 26 -43 -6 -51 -14 -4 -30 -2 -37 5 -8 8 -4 11 16 11 15 0 27 5 27 10 0
6 -3 10 -7 10 -19 1 -33 18 -27 33 7 19 64 24 64 6z m185 -29 c0 -27 -5 -37
-22 -45 -13 -5 -23 -15 -23 -22 0 -7 -4 -13 -10 -13 -6 0 -10 27 -10 61 l0 60
33 -3 c29 -3 32 -6 32 -38z m100 29 c10 -16 -3 -23 -18 -10 -19 15 -41 -11
-34 -39 3 -11 1 -23 -4 -26 -5 -3 -9 15 -9 40 0 44 1 46 29 46 17 0 33 -5 36
-11z m90 -28 c0 -41 -25 -62 -52 -45 -41 26 -21 87 26 82 22 -3 26 -8 26 -37z
m83 -18 c-3 -55 -4 -58 -30 -61 -16 -2 -28 1 -28 6 0 5 8 9 18 8 13 -1 18 8
20 46 3 42 1 47 -20 51 -17 3 -14 5 10 6 l33 1 -3 -57z m110 30 c3 -20 -1 -23
-28 -23 -18 0 -29 -4 -25 -10 3 -5 18 -10 33 -10 19 0 23 -3 15 -11 -16 -16
-60 -3 -68 21 -3 10 -1 29 5 40 16 29 64 24 68 -7z m92 17 c0 -5 -6 -7 -13 -4
-18 7 -41 -22 -33 -41 3 -8 15 -15 26 -15 11 0 20 -4 20 -10 0 -16 -37 -12
-54 6 -19 18 -20 28 -6 55 11 19 60 27 60 9z m475 -30 c0 -27 -5 -37 -22 -45
-13 -5 -23 -15 -23 -22 0 -7 -4 -13 -10 -13 -6 0 -10 27 -10 61 l0 60 33 -3
c29 -3 32 -6 32 -38z m100 29 c4 -5 4 -13 0 -17 -3 -3 -10 0 -14 7 -13 21 -31
3 -31 -29 0 -16 -4 -32 -10 -35 -6 -4 -10 11 -10 37 0 41 2 44 29 46 16 1 33
-3 36 -9z m95 -10 c9 -16 8 -26 -5 -45 -18 -28 -37 -31 -59 -8 -19 18 -20 28
-6 55 14 26 56 25 70 -2z m90 -20 c0 -55 -15 -79 -48 -78 l-27 1 25 7 c21 6
26 14 28 49 3 36 0 44 -20 51 -21 9 -21 10 10 10 31 1 32 0 32 -40z m98 14 c3
-19 -1 -23 -22 -23 -35 0 -33 -18 2 -22 24 -4 25 -5 8 -13 -36 -16 -68 29 -52
71 9 25 60 14 64 -13z m92 17 c0 -5 -6 -7 -13 -4 -18 7 -41 -22 -33 -41 3 -8
15 -15 26 -15 12 0 18 -4 15 -10 -11 -17 -34 -11 -50 14 -13 19 -14 29 -5 45
11 21 60 30 60 11z m170 -5 c0 -8 -4 -15 -10 -15 -5 0 -10 7 -10 15 0 8 5 15
10 15 6 0 10 -7 10 -15z m-842 -12 c-10 -2 -28 -2 -40 0 -13 2 -5 4 17 4 22 1
32 -1 23 -4z m12 -23 c0 -5 -16 -10 -35 -10 -19 0 -35 5 -35 10 0 6 16 10 35
10 19 0 35 -4 35 -10z m-882 -21 c-2 -6 -8 -10 -13 -10 -5 0 -11 4 -13 10 -2
6 4 11 13 11 9 0 15 -5 13 -11z m1719 -6 c4 -12 -23 -43 -38 -43 -5 0 -9 5 -9
10 0 6 5 10 10 10 6 0 10 9 10 21 0 21 21 22 27 2z m-2289 -143 c2 -14 9 -31
14 -37 7 -9 7 -13 -1 -13 -6 0 -11 -13 -11 -29 0 -29 -25 -60 -37 -47 -4 4 -2
11 5 15 17 11 18 107 1 127 -12 14 -11 16 6 13 12 -3 21 -14 23 -29z m262
-218 c0 -20 3 -23 12 -14 7 7 19 12 27 12 11 0 10 -4 -4 -20 -17 -19 -17 -21
0 -40 15 -17 16 -20 3 -20 -9 0 -18 7 -22 15 -3 8 -10 15 -15 15 -6 0 -8 -7
-5 -15 4 -8 1 -15 -5 -15 -7 0 -11 23 -11 61 0 37 4 58 10 54 6 -3 10 -18 10
-33z m430 -22 l0 -60 -34 0 c-26 0 -36 5 -41 20 -8 26 11 60 35 60 13 0 20 7
20 20 0 11 5 20 10 20 6 0 10 -27 10 -60z m166 38 c-21 -29 -20 -77 0 -106 22
-32 7 -43 -16 -12 -11 14 -20 41 -20 60 0 36 23 80 41 80 6 0 3 -10 -5 -22z
m88 0 c9 -12 16 -38 16 -58 0 -36 -33 -91 -46 -77 -4 4 0 15 9 25 21 23 22 81
1 110 -8 12 -11 22 -5 22 5 0 17 -10 25 -22z m205 6 c-17 -20 -15 -109 2 -130
12 -14 11 -16 -6 -13 -14 3 -21 14 -23 34 -2 16 -11 34 -19 40 -14 11 -14 12
1 18 9 4 16 17 16 30 0 27 7 37 28 37 12 0 12 -3 1 -16z m-799 -25 c0 -12 7
-19 20 -19 15 0 20 7 20 25 0 14 5 25 10 25 6 0 10 -25 10 -55 0 -30 -4 -55
-10 -55 -5 0 -10 11 -10 25 0 18 -5 25 -20 25 -15 0 -20 -7 -20 -25 0 -14 -4
-25 -10 -25 -5 0 -10 25 -10 56 0 34 4 53 10 49 6 -3 10 -15 10 -26z m-390
-26 c1 -24 2 -25 11 -10 5 9 14 17 19 17 5 0 11 -8 13 -17 3 -11 5 -7 6 10 0
15 6 27 12 27 8 0 10 -12 6 -36 -8 -47 -15 -54 -33 -30 -12 17 -14 18 -14 3 0
-9 -7 -17 -15 -17 -8 0 -15 8 -15 18 0 9 -3 27 -6 40 -4 13 -2 22 5 22 6 0 11
-12 11 -27z m155 -13 c0 -32 -3 -35 -33 -38 -37 -4 -48 13 -38 54 6 21 11 25
39 22 29 -3 32 -6 32 -38z m100 29 c4 -6 4 -13 0 -17 -3 -3 -10 -1 -14 6 -13
22 -41 2 -41 -29 0 -16 -4 -29 -10 -29 -5 0 -10 18 -10 40 0 39 1 40 34 40 19
0 38 -5 41 -11z m283 -31 c3 -37 3 -38 -32 -38 -19 0 -38 5 -41 10 -10 16 14
40 38 40 24 0 12 15 -18 23 -11 3 -4 5 15 4 33 -2 35 -4 38 -39z m97 31 c4 -6
4 -13 0 -17 -3 -3 -10 -1 -14 6 -13 22 -41 2 -41 -29 0 -16 -4 -29 -10 -29 -5
0 -10 18 -10 40 0 39 1 40 34 40 19 0 38 -5 41 -11z m-125 -210 c0 -38 5 -55
18 -65 15 -12 12 -13 -23 -13 -35 0 -38 1 -22 13 23 18 24 96 1 96 -8 0 -12 5
-9 10 3 6 13 10 21 10 10 0 14 -13 14 -51z m285 11 c-16 -32 -13 -84 6 -95 12
-8 11 -25 -2 -25 -17 0 -41 70 -34 99 7 26 35 64 42 57 3 -2 -3 -18 -12 -36z
m405 -23 l0 -63 -32 1 c-31 0 -33 2 -33 35 0 26 5 37 22 45 12 5 24 17 26 27
10 36 17 17 17 -45z m280 56 c0 -5 -7 -17 -15 -27 -19 -25 -19 -59 0 -96 9
-17 11 -30 6 -30 -14 0 -41 54 -41 80 0 24 30 80 42 80 4 0 8 -3 8 -7z m74
-15 c29 -41 11 -138 -25 -138 -6 0 -3 10 5 22 21 29 20 82 0 113 -20 31 -1 33
20 3z m606 -47 c0 -57 -1 -59 -27 -59 -35 0 -53 14 -53 42 0 27 18 46 42 46
12 0 18 7 18 21 0 11 5 17 10 14 6 -3 10 -32 10 -64z m280 5 l0 -64 -32 1
c-30 2 -33 5 -36 39 -3 33 0 38 21 44 14 3 27 14 30 25 10 37 17 18 17 -45z
m70 9 c0 -42 3 -55 15 -55 8 0 15 -4 15 -10 0 -5 -16 -10 -35 -10 -19 0 -35 5
-35 10 0 6 5 10 10 10 6 0 10 20 10 45 0 25 -4 45 -10 45 -5 0 -10 5 -10 10 0
6 9 10 20 10 18 0 20 -7 20 -55z m400 46 c0 -5 -7 -14 -15 -21 -20 -16 -19
-79 1 -108 8 -12 11 -22 5 -22 -18 0 -41 44 -41 78 0 18 7 44 16 57 16 25 34
33 34 16z m74 -16 c9 -13 16 -39 16 -57 0 -34 -23 -78 -41 -78 -6 0 -3 10 5
22 20 28 20 78 1 104 -17 22 -19 34 -6 34 5 0 16 -11 25 -25z m191 -5 c8 -16
15 -42 15 -57 0 -30 -24 -73 -41 -73 -6 0 -3 10 5 22 20 28 20 78 1 104 -17
22 -19 34 -5 34 5 0 16 -13 25 -30z m201 8 c-24 -13 -23 -113 2 -127 15 -9 15
-10 -5 -11 -19 0 -23 5 -23 30 0 16 -7 33 -16 38 -14 8 -14 10 0 21 9 8 16 24
16 36 0 23 17 37 34 27 5 -3 1 -9 -8 -14z m-3070 -21 c8 3 21 0 29 -7 17 -14
20 -66 5 -75 -6 -4 -10 8 -10 29 0 60 -33 53 -43 -9 -2 -16 -4 -1 -4 35 0 36
2 55 4 43 3 -14 9 -20 19 -16z m114 23 c0 -5 -4 -10 -10 -10 -5 0 -10 5 -10
10 0 6 5 10 10 10 6 0 10 -4 10 -10z m1330 -30 c0 -22 -4 -40 -10 -40 -5 0
-10 18 -10 40 0 22 5 40 10 40 6 0 10 -18 10 -40z m860 30 c0 -5 -7 -10 -15
-10 -8 0 -15 5 -15 10 0 6 7 10 15 10 8 0 15 -4 15 -10z m-1630 -10 c0 -5 7
-10 15 -10 8 0 15 -4 15 -10 0 -5 -7 -10 -15 -10 -9 0 -15 -9 -15 -24 0 -18 6
-26 23 -29 19 -3 20 -4 5 -11 -28 -12 -48 1 -48 30 0 15 -8 33 -17 40 -17 13
-17 13 0 14 9 0 17 5 17 10 0 6 5 10 10 10 6 0 10 -4 10 -10z m-790 -37 c1
-26 2 -27 14 -10 14 18 15 18 25 0 10 -17 10 -16 11 4 0 12 5 25 12 29 8 5 9
-5 4 -37 -8 -52 -14 -60 -28 -36 -9 18 -10 18 -23 0 -17 -23 -21 -18 -29 35
-4 26 -2 42 4 42 5 0 10 -12 10 -27z m230 -8 c0 -19 5 -35 10 -35 6 0 10 -4
10 -10 0 -5 -13 -10 -30 -10 -16 0 -30 5 -30 10 0 6 5 10 10 10 15 0 12 57 -2
63 -7 3 -3 6 10 6 19 1 22 -4 22 -34z m208 8 c3 -19 -1 -23 -22 -23 -35 0 -33
-18 2 -22 24 -4 25 -5 8 -13 -38 -17 -73 37 -45 71 18 22 53 13 57 -13z m481
5 c12 -32 2 -57 -25 -64 -30 -8 -54 11 -54 40 0 47 63 66 79 24z m189 -24 c3
-39 2 -41 -27 -42 -54 -1 -62 37 -11 57 l25 10 -27 0 c-16 1 -28 6 -28 12 0 6
14 9 33 7 30 -3 32 -6 35 -44z m46 21 c4 -14 10 -25 15 -25 5 0 12 11 15 25 4
14 11 25 17 25 12 0 5 -26 -20 -80 -11 -25 -23 -36 -41 -37 -14 -2 -19 0 -10
4 26 10 29 26 14 61 -16 40 -18 52 -5 52 5 0 12 -11 15 -25z m906 6 c15 -28
13 -31 -20 -31 -16 0 -30 -4 -30 -10 0 -5 11 -10 25 -10 14 0 25 -4 25 -10 0
-11 -30 -13 -54 -4 -19 7 -21 55 -4 72 18 18 46 14 58 -7z m88 7 c7 -7 12 -26
12 -44 0 -31 -2 -32 -37 -31 -51 3 -58 32 -11 52 33 14 33 14 6 15 -16 0 -28
5 -28 10 0 14 43 13 58 -2z m272 -23 c0 -19 5 -35 10 -35 6 0 10 -4 10 -10 0
-5 -16 -10 -35 -10 -19 0 -35 5 -35 10 0 6 7 10 15 10 21 0 19 40 -2 56 -16
12 -15 13 10 14 24 0 27 -3 27 -35z m112 22 c11 -18 10 -77 -2 -77 -5 0 -10
16 -10 36 0 28 -3 35 -17 32 -12 -2 -19 -14 -21 -36 -4 -44 -22 -30 -22 17 0
36 2 38 32 39 18 0 36 -5 40 -11z m98 -6 c15 -28 13 -31 -20 -31 -16 0 -30 -4
-30 -10 0 -5 11 -10 25 -10 14 0 25 -4 25 -10 0 -14 -43 -13 -58 2 -7 7 -12
21 -12 33 0 43 50 62 70 26z m-962 -8 c-10 -2 -28 -2 -40 0 -13 2 -5 4 17 4
22 1 32 -1 23 -4z m95 0 c-13 -2 -33 -2 -45 0 -13 2 -3 4 22 4 25 0 35 -2 23
-4z m-95 -30 c-10 -2 -28 -2 -40 0 -13 2 -5 4 17 4 22 1 32 -1 23 -4z m95 0
c-13 -2 -33 -2 -45 0 -13 2 -3 4 22 4 25 0 35 -2 23 -4z m-203 -23 c0 -5 -4
-10 -10 -10 -5 0 -10 5 -10 10 0 6 5 10 10 10 6 0 10 -4 10 -10z m-1255 -131
c-6 -18 -4 -20 13 -15 27 9 35 -7 28 -50 -9 -46 -26 -44 -19 2 5 29 3 36 -8
32 -8 -2 -18 -19 -24 -36 -8 -30 -25 -44 -25 -22 0 29 23 110 32 110 5 0 6 -9
3 -21z m125 13 c0 -13 -12 -22 -22 -16 -10 6 -1 24 13 24 5 0 9 -4 9 -8z m340
-22 c0 -34 6 -37 32 -13 10 9 18 11 18 6 0 -6 -7 -16 -15 -23 -14 -12 -13 -16
6 -37 19 -20 20 -23 5 -23 -9 0 -19 7 -22 15 -4 8 -10 15 -15 15 -5 0 -9 -7
-9 -15 0 -8 -4 -15 -10 -15 -6 0 -10 27 -10 60 0 33 4 60 10 60 6 0 10 -13 10
-30z m128 -26 c2 -27 9 -52 15 -56 7 -4 -6 -8 -28 -8 -32 1 -36 3 -22 11 21
12 23 59 2 59 -8 0 -15 5 -15 10 0 6 7 10 15 10 9 0 12 6 8 16 -4 11 -2 15 7
12 8 -2 15 -24 18 -54z m92 2 c0 -44 4 -55 18 -59 9 -3 -3 -5 -28 -5 -25 0
-37 2 -27 5 13 3 17 15 17 53 0 29 -5 50 -12 53 -7 3 -3 6 10 6 20 1 22 -3 22
-53z m100 0 c0 -34 5 -56 13 -59 6 -3 -6 -6 -28 -6 -32 0 -36 2 -22 10 11 7
17 22 17 49 0 27 -6 42 -17 49 -15 9 -14 10 10 11 26 0 27 -2 27 -54z m293 44
c-13 -5 -23 -14 -23 -20 0 -6 10 -15 23 -20 l22 -9 -22 0 c-19 -1 -23 -7 -23
-31 0 -16 -4 -30 -10 -30 -5 0 -10 14 -10 30 0 17 -5 30 -12 30 -9 0 -10 3 -2
8 6 4 16 17 23 30 7 13 21 22 34 21 l22 0 -22 -9z m527 -11 c0 -16 4 -19 19
-14 14 4 23 0 30 -14 14 -25 14 -71 1 -71 -5 0 -10 16 -10 36 0 28 -3 35 -17
32 -12 -2 -19 -14 -21 -36 -6 -56 -22 -35 -22 28 0 33 4 60 10 60 6 0 10 -9
10 -21z m123 -14 c-14 -28 -15 -42 -6 -63 30 -75 29 -69 5 -48 -30 26 -38 76
-18 115 23 43 40 39 19 -4z m266 12 c-4 -35 1 -40 21 -22 11 10 22 16 25 13 3
-3 -1 -11 -10 -18 -19 -16 -19 -29 2 -52 9 -10 11 -18 6 -18 -6 0 -16 7 -23
15 -7 8 -17 15 -22 15 -6 0 -8 -7 -4 -15 3 -8 1 -15 -4 -15 -6 0 -10 27 -10
61 0 38 4 58 10 54 6 -4 10 -12 9 -18z m119 -35 c2 -26 9 -50 15 -54 7 -4 -6
-7 -28 -7 -22 1 -32 3 -22 6 20 5 24 58 5 66 -10 4 -9 8 2 16 8 6 11 11 7 11
-5 0 -5 5 -2 11 11 17 19 1 23 -49z m92 4 c0 -44 4 -55 18 -59 9 -3 -1 -5 -23
-5 -22 0 -34 2 -27 5 7 3 12 24 12 53 0 29 -5 50 -12 53 -7 3 -3 6 10 6 20 1
22 -3 22 -53z m100 0 c0 -34 5 -56 13 -59 6 -3 -6 -5 -28 -5 -22 0 -32 2 -22
5 13 3 17 15 17 53 0 29 -5 50 -12 53 -7 3 -3 6 10 6 20 1 22 -3 22 -53z m564
20 c7 3 17 -1 23 -8 13 -15 5 -78 -9 -78 -6 0 -8 14 -4 35 7 35 -3 46 -22 23
-5 -7 -11 -22 -13 -32 -2 -11 -9 -21 -15 -23 -9 -3 -9 9 -2 44 13 67 21 84 25
56 3 -13 10 -20 17 -17z m107 21 c-1 -12 -15 -9 -19 4 -3 6 1 10 8 8 6 -3 11
-8 11 -12z m579 3 c0 -5 -4 -10 -10 -10 -5 0 -10 5 -10 10 0 6 5 10 10 10 6 0
10 -4 10 -10z m-3630 -10 c0 -5 7 -10 15 -10 8 0 15 -4 15 -10 0 -5 -9 -10
-20 -10 -11 0 -20 -4 -20 -9 0 -5 -3 -16 -6 -25 -4 -11 2 -19 17 -26 23 -9 22
-10 -6 -7 -27 2 -30 5 -27 35 2 20 -1 32 -9 32 -8 0 -5 8 7 19 21 22 34 26 34
11z m1428 3 c-20 -3 -28 -10 -28 -24 0 -14 7 -19 28 -20 l27 -2 -27 -4 c-19
-3 -28 -10 -28 -23 0 -13 9 -20 28 -23 22 -3 20 -4 -10 -6 l-38 -1 0 55 0 55
38 -1 c30 -2 32 -3 10 -6z m1447 -18 c19 -7 19 -8 -5 -14 -32 -8 -41 -56 -13
-65 11 -3 9 -4 -7 -3 -21 2 -25 7 -24 32 0 17 -4 33 -10 37 -7 5 -4 12 9 22
11 8 22 11 25 7 3 -4 14 -11 25 -16z m1015 16 c0 -5 10 -12 23 -16 l22 -8 -22
-4 c-17 -3 -23 -11 -23 -29 0 -16 8 -28 23 -34 20 -9 19 -9 -8 -7 -25 2 -31 7
-33 32 -2 16 -9 33 -14 36 -7 5 -6 12 3 23 16 17 29 21 29 7z m-3707 -56 c-2
-29 1 -36 12 -31 8 3 15 1 15 -5 0 -6 -10 -9 -22 -7 -19 2 -22 8 -20 36 3 25
0 32 -15 32 -15 0 -16 2 -3 10 25 16 35 5 33 -35z m122 35 c4 -6 -6 -10 -22
-10 l-28 0 24 -19 c33 -25 22 -51 -21 -50 -30 2 -31 2 -5 6 33 5 34 15 5 37
-23 15 -23 16 -4 31 23 17 42 19 51 5z m185 0 c0 -5 -9 -10 -20 -10 -27 0 -25
-13 3 -25 33 -15 28 -39 -10 -43 -20 -2 -33 1 -33 8 0 6 5 8 10 5 6 -4 19 -4
28 0 15 6 14 8 -6 16 -28 11 -40 38 -21 50 19 12 49 11 49 -1z m475 0 c3 -5
-3 -10 -14 -10 -27 0 -27 -16 0 -23 36 -9 20 -42 -21 -43 -26 -1 -28 -1 -7 3
32 5 35 19 7 28 -22 7 -27 40 -7 48 20 9 35 8 42 -3z m290 -15 c18 -28 2 -65
-28 -65 -45 0 -61 38 -30 72 20 23 41 20 58 -7z m98 16 c4 0 7 -8 7 -17 0 -13
-3 -14 -15 -4 -20 17 -35 4 -35 -31 0 -16 -4 -29 -10 -29 -5 0 -10 19 -10 43
0 41 2 43 28 41 15 -1 30 -2 35 -3z m178 -1 c13 -8 19 -21 19 -45 0 -33 -2
-35 -34 -35 -19 0 -38 5 -41 10 -9 15 14 40 36 40 11 0 19 5 19 10 0 6 -12 10
-27 10 -22 0 -25 2 -13 10 19 12 17 12 41 0z m104 1 c3 -5 -5 -11 -17 -13 -34
-5 -32 -50 2 -59 l25 -7 -25 -1 c-30 -1 -50 15 -50 40 0 34 50 64 65 40z m375
0 c0 -5 -10 -11 -22 -13 -22 -4 -22 -5 5 -18 39 -19 31 -45 -13 -46 -26 -1
-28 -1 -7 3 34 5 35 16 2 31 -29 14 -32 27 -7 41 22 13 42 14 42 2z m658 -14
l22 -23 -30 -22 c-39 -29 -49 -28 -20 3 l23 24 -24 20 c-18 15 -20 20 -8 21 8
0 25 -10 37 -23z m369 11 c4 -7 6 -25 4 -40 -2 -23 1 -27 15 -21 12 4 15 3 10
-5 -4 -7 -17 -12 -28 -12 -18 0 -20 4 -15 36 5 29 3 35 -8 30 -15 -6 -20 5 -8
17 10 11 21 8 30 -5z m118 2 c3 -5 -3 -10 -14 -10 -27 0 -27 -17 0 -25 32 -10
19 -39 -19 -43 -19 -2 -32 1 -32 8 0 6 5 8 10 5 6 -4 18 -4 26 -1 13 5 12 9
-7 25 -20 16 -21 21 -10 35 15 18 37 21 46 6z m193 -3 c15 -10 16 -49 0 -65
-7 -7 -20 -12 -30 -12 -11 0 -18 -7 -18 -20 0 -11 -4 -20 -10 -20 -10 0 -15
112 -5 121 7 8 49 5 63 -4z m101 -12 c3 -17 1 -17 -12 -6 -22 18 -37 6 -37
-30 0 -16 -4 -29 -10 -29 -5 0 -10 19 -10 43 0 41 1 42 32 42 25 0 34 -5 37
-20z m82 15 c22 -13 25 -52 5 -70 -8 -6 -25 -10 -38 -8 -30 4 -38 56 -12 75
21 16 20 16 45 3z m97 -43 c2 -27 -2 -55 -9 -63 -13 -16 -49 -19 -49 -4 0 6 9
10 20 10 17 0 20 7 20 45 0 38 -3 45 -20 45 -11 0 -20 5 -20 11 0 6 12 9 28 7
25 -3 27 -7 30 -51z m93 43 c10 -6 19 -20 19 -30 0 -16 -7 -20 -31 -20 -19 0
-28 -4 -23 -11 3 -6 15 -9 25 -6 11 3 19 1 19 -4 0 -16 -58 -10 -64 7 -10 25
-7 42 10 58 18 19 20 19 45 6z m104 1 c3 -5 -5 -11 -17 -13 -33 -4 -33 -53 0
-52 12 0 22 -3 22 -8 0 -5 -15 -8 -32 -6 -28 3 -33 7 -36 33 -5 39 44 75 63
46z m-1235 -21 c0 -5 -16 -10 -35 -10 -19 0 -35 5 -35 10 0 6 16 10 35 10 19
0 35 -4 35 -10z m5 -30 c-3 -5 -19 -10 -35 -10 -16 0 -32 5 -35 10 -4 6 10 10
35 10 25 0 39 -4 35 -10z m-2218 -26 c-9 -9 -28 6 -21 18 4 6 10 6 17 -1 6 -6
8 -13 4 -17z m673 5 c0 -5 -7 -9 -15 -9 -15 0 -20 12 -9 23 8 8 24 -1 24 -14z
m2181 -2 c-13 -13 -26 -3 -16 12 3 6 11 8 17 5 6 -4 6 -10 -1 -17z m769 2 c0
-5 -7 -9 -15 -9 -15 0 -20 12 -9 23 8 8 24 -1 24 -14z m-4295 -139 c12 0 26
-7 29 -16 9 -24 7 -62 -4 -69 -6 -4 -10 8 -10 28 0 18 -3 37 -7 40 -12 13 -33
-16 -33 -45 0 -17 -4 -27 -10 -23 -12 7 -14 108 -2 119 4 4 8 -2 10 -13 2 -14
11 -21 27 -21z m115 33 c0 -5 -7 -17 -15 -27 -19 -25 -19 -53 0 -90 17 -33 18
-36 7 -36 -11 0 -42 55 -42 75 0 23 30 85 41 85 5 0 9 -3 9 -7z m367 -19 c-9
-9 -28 6 -21 18 4 6 10 6 17 -1 6 -6 8 -13 4 -17z m503 -37 l0 -64 -31 -1
c-22 0 -33 5 -41 22 -13 30 5 66 32 66 13 0 20 7 20 20 0 11 5 20 10 20 6 0
10 -28 10 -63z m180 56 c0 -5 -7 -17 -15 -27 -8 -11 -15 -32 -15 -46 0 -14 7
-35 15 -46 17 -22 19 -34 5 -34 -13 0 -40 54 -40 80 0 26 27 80 40 80 6 0 10
-3 10 -7z m259 -50 c7 10 18 17 24 17 6 0 4 -7 -5 -17 -16 -15 -16 -18 3 -45
24 -33 15 -37 -18 -6 l-23 21 0 -22 c0 -13 -4 -19 -10 -16 -11 7 -11 101 -1
120 4 6 8 -8 11 -29 4 -35 7 -37 19 -23z m201 2 c0 -30 5 -55 10 -55 6 0 10
-4 10 -10 0 -5 -13 -10 -30 -10 -16 0 -30 5 -30 10 0 6 5 10 10 10 6 0 10 20
10 45 0 25 -4 45 -10 45 -5 0 -10 5 -10 10 0 6 9 10 20 10 18 0 20 -7 20 -55z
m98 -3 c2 -28 7 -52 13 -52 5 0 9 -4 9 -10 0 -5 -16 -10 -35 -10 -19 0 -35 5
-35 10 0 6 7 10 15 10 11 0 15 12 15 45 0 25 -4 45 -10 45 -5 0 -10 5 -10 11
0 6 8 9 18 7 13 -2 18 -15 20 -56z m187 28 c8 -16 15 -38 15 -50 0 -26 -27
-80 -40 -80 -14 0 -12 12 5 34 8 11 15 32 15 46 0 14 -7 35 -15 46 -17 22 -19
34 -5 34 5 0 16 -13 25 -30z m190 0 c8 -16 15 -38 15 -50 0 -26 -27 -80 -40
-80 -14 0 -12 12 5 34 8 11 15 32 15 46 0 14 -7 35 -15 46 -17 22 -19 34 -5
34 5 0 16 -13 25 -30z m190 0 c8 -16 15 -38 15 -50 0 -26 -27 -80 -40 -80 -14
0 -12 12 5 34 8 11 15 32 15 46 0 14 -7 35 -15 46 -17 22 -19 34 -5 34 5 0 16
-13 25 -30z m-1702 -11 c22 -2 22 -2 0 -6 -18 -3 -23 -11 -23 -33 0 -22 5 -30
23 -33 19 -3 20 -4 4 -11 -24 -11 -47 10 -47 45 0 16 -4 29 -10 29 -5 0 -2 9
8 20 14 17 18 18 20 5 2 -8 13 -16 25 -16z m207 22 c0 -5 -10 -11 -21 -13 -50
-7 -49 -69 0 -76 24 -4 19 -22 -6 -22 -24 0 -53 30 -53 54 0 33 28 66 56 66
13 0 24 -4 24 -9z m735 -1 c-3 -5 -10 -10 -16 -10 -5 0 -9 5 -9 10 0 6 7 10
16 10 8 0 12 -4 9 -10z m-1785 -41 c9 -16 8 -26 -5 -45 -8 -13 -22 -24 -30
-24 -8 0 -15 -7 -15 -15 0 -8 -4 -15 -10 -15 -6 0 -10 27 -10 60 0 60 0 60 30
60 19 0 33 -7 40 -21z m42 -11 c2 -21 8 -33 18 -33 10 0 16 12 18 33 5 48 24
39 20 -10 -3 -35 -7 -42 -28 -45 -30 -4 -50 19 -50 59 0 39 18 35 22 -4z m143
22 c-4 -6 -11 -8 -16 -5 -5 4 -14 3 -20 -1 -7 -4 -2 -11 13 -18 33 -17 35 -44
3 -52 -15 -4 -31 -2 -38 5 -8 8 -4 11 16 11 15 0 27 5 27 10 0 6 -6 10 -14 10
-18 0 -39 27 -31 40 3 5 20 10 36 10 18 0 28 -4 24 -10z m325 -10 c0 -11 5
-20 10 -20 6 0 10 5 10 10 0 17 18 11 23 -7 3 -11 5 -7 6 10 0 15 6 27 11 27
13 0 13 -61 0 -80 -9 -13 -12 -13 -21 3 -10 17 -12 17 -23 1 -15 -20 -21 -13
-30 39 -4 23 -3 37 4 37 5 0 10 -9 10 -20z m160 5 c0 -8 -4 -15 -10 -15 -5 0
-10 4 -10 10 0 5 -7 7 -15 4 -9 -4 -15 -19 -15 -40 0 -19 -4 -34 -10 -34 -5 0
-10 20 -10 45 0 45 0 45 35 45 24 0 35 -5 35 -15z m70 -20 c0 -19 5 -35 10
-35 6 0 10 -4 10 -10 0 -5 -16 -10 -35 -10 -19 0 -35 5 -35 10 0 6 7 10 15 10
22 0 20 57 -2 63 -11 3 -7 5 10 6 24 1 27 -2 27 -34z m208 23 c21 -21 13 -38
-18 -38 -16 0 -30 -4 -30 -10 0 -5 12 -10 27 -10 20 0 24 -3 16 -11 -28 -28
-70 10 -59 54 7 29 42 37 64 15z m190 0 c35 -35 -15 -99 -53 -68 -15 13 -21
61 -8 73 11 11 48 8 61 -5z m190 0 c21 -21 13 -38 -18 -38 -16 0 -30 -4 -30
-10 0 -5 12 -10 27 -10 21 0 24 -3 15 -12 -9 -9 -18 -9 -37 0 -40 19 -29 82
15 82 9 0 21 -5 28 -12z m262 1 l-25 -10 28 -15 c16 -9 27 -20 25 -26 -7 -20
-34 -32 -54 -23 -17 8 -16 9 9 13 27 3 39 22 13 22 -18 0 -39 27 -31 40 3 5
18 10 33 9 l27 0 -25 -10z m198 -26 c2 -18 7 -33 13 -33 5 0 9 -4 9 -10 0 -5
-16 -10 -35 -10 -19 0 -35 5 -35 10 0 6 7 10 15 10 22 0 20 57 -2 64 -11 3 -7
4 7 3 20 -2 26 -8 28 -34z m-1430 -173 c2 -14 9 -31 14 -37 7 -9 7 -13 -1 -13
-6 0 -11 -13 -11 -29 0 -29 -25 -60 -37 -47 -4 4 -2 11 6 15 17 11 17 121 -1
133 -9 7 -8 8 7 6 13 -2 21 -12 23 -28z m-190 -228 c2 -17 8 -32 14 -32 7 0 7
-4 0 -12 -6 -7 -12 -26 -14 -43 -2 -20 -9 -31 -23 -34 -16 -3 -17 -1 -7 12 17
20 17 113 1 133 -12 14 -11 16 6 13 14 -3 21 -14 23 -37z m-200 -184 c7 -7 12
-22 12 -34 0 -12 6 -25 13 -27 9 -4 9 -8 0 -14 -6 -4 -13 -22 -15 -38 -2 -23
-9 -31 -28 -33 -23 -3 -24 -3 -6 10 14 11 18 27 18 68 0 31 -4 56 -11 58 -13
4 -15 22 -3 22 4 0 13 -5 20 -12z"></path>
<path d="M2530 3367 c0 -30 10 -40 27 -26 20 18 16 49 -7 49 -14 0 -20 -7 -20
-23z"></path>
<path d="M1010 3399 c0 -24 23 -21 28 4 2 10 -3 17 -12 17 -10 0 -16 -9 -16
-21z"></path>
<path d="M1010 3350 c0 -22 7 -25 29 -11 16 10 6 31 -15 31 -8 0 -14 -9 -14
-20z"></path>
<path d="M630 3344 c0 -9 5 -14 12 -12 18 6 21 28 4 28 -9 0 -16 -7 -16 -16z"></path>
<path d="M1297 3354 c-4 -4 -4 -10 -1 -15 6 -10 34 0 34 12 0 10 -24 12 -33 3z"></path>
<path d="M1770 3380 c0 -5 9 -10 20 -10 11 0 20 5 20 10 0 6 -9 10 -20 10 -11
0 -20 -4 -20 -10z"></path>
<path d="M2055 3380 c-3 -5 3 -10 14 -10 12 0 21 5 21 10 0 6 -6 10 -14 10 -8
0 -18 -4 -21 -10z"></path>
<path d="M2345 3380 c-3 -5 3 -10 14 -10 12 0 21 5 21 10 0 6 -6 10 -14 10 -8
0 -18 -4 -21 -10z"></path>
<path d="M2912 3363 c2 -17 9 -28 18 -28 9 0 16 11 18 28 3 22 -1 27 -18 27
-17 0 -21 -5 -18 -27z"></path>
<path d="M3297 3354 c-4 -4 -4 -10 -1 -15 6 -10 34 0 34 12 0 10 -24 12 -33 3z"></path>
<path d="M3485 3380 c-3 -5 3 -10 14 -10 12 0 21 5 21 10 0 6 -6 10 -14 10 -8
0 -18 -4 -21 -10z"></path>
<path d="M3770 3375 c0 -8 7 -15 15 -15 8 0 15 7 15 15 0 8 -7 15 -15 15 -8 0
-15 -7 -15 -15z"></path>
<path d="M3770 3310 c0 -5 9 -10 20 -10 11 0 20 5 20 10 0 6 -9 10 -20 10 -11
0 -20 -4 -20 -10z"></path>
<path d="M4055 3380 c-3 -5 3 -10 14 -10 12 0 21 5 21 10 0 6 -6 10 -14 10 -8
0 -18 -4 -21 -10z"></path>
<path d="M4150 3380 c0 -5 9 -10 21 -10 11 0 17 5 14 10 -3 6 -13 10 -21 10
-8 0 -14 -4 -14 -10z"></path>
<path d="M724 3166 c-8 -22 3 -49 19 -43 6 2 12 14 12 27 0 27 -22 39 -31 16z"></path>
<path d="M1487 3173 c-13 -12 -7 -44 9 -50 21 -8 35 16 23 39 -10 19 -21 23
-32 11z"></path>
<path d="M1967 3174 c-4 -4 -7 -18 -7 -31 0 -18 5 -24 18 -21 10 2 17 12 17
27 0 24 -15 37 -28 25z"></path>
<path d="M2157 3174 c-4 -4 -7 -18 -7 -31 0 -18 5 -24 18 -21 10 2 17 12 17
27 0 24 -15 37 -28 25z"></path>
<path d="M2347 3174 c-13 -13 -7 -24 14 -24 11 0 19 5 17 12 -5 14 -22 21 -31
12z"></path>
<path d="M4813 2934 c-7 -18 11 -39 26 -30 17 11 13 46 -4 46 -9 0 -18 -7 -22
-16z"></path>
<path d="M2530 2910 c0 -5 6 -10 14 -10 8 0 18 5 21 10 3 6 -3 10 -14 10 -12
0 -21 -4 -21 -10z"></path>
<path d="M2720 2910 c0 -5 6 -10 14 -10 8 0 18 5 21 10 3 6 -3 10 -14 10 -12
0 -21 -4 -21 -10z"></path>
<path d="M3204 2935 c-4 -8 -3 -22 0 -31 5 -13 9 -14 21 -4 8 7 15 21 15 31 0
23 -28 25 -36 4z"></path>
<path d="M3870 2945 c-10 -13 -9 -15 9 -15 11 0 21 4 21 9 0 18 -18 21 -30 6z"></path>
<path d="M3960 2910 c0 -5 6 -10 14 -10 8 0 18 5 21 10 3 6 -3 10 -14 10 -12
0 -21 -4 -21 -10z"></path>
<path d="M4720 2940 c0 -5 9 -10 20 -10 11 0 20 5 20 10 0 6 -9 10 -20 10 -11
0 -20 -4 -20 -10z"></path>
<path d="M5480 2940 c0 -5 9 -10 20 -10 11 0 20 5 20 10 0 6 -9 10 -20 10 -11
0 -20 -4 -20 -10z"></path>
<path d="M5674 2935 c-9 -23 3 -45 21 -39 20 8 20 54 0 54 -9 0 -18 -7 -21
-15z"></path>
<path d="M5873 2953 c-20 -7 -15 -23 7 -23 11 0 20 4 20 9 0 13 -12 19 -27 14z"></path>
<path d="M724 2725 c-4 -8 -3 -22 0 -31 5 -13 9 -14 21 -4 8 7 15 21 15 31 0
23 -28 25 -36 4z"></path>
<path d="M627 2725 c-9 -22 3 -46 22 -43 10 2 16 13 16 28 0 28 -29 40 -38 15z"></path>
<path d="M820 2730 c0 -5 9 -10 21 -10 11 0 17 5 14 10 -3 6 -13 10 -21 10 -8
0 -14 -4 -14 -10z"></path>
<path d="M1300 2725 c-14 -17 -5 -48 13 -43 14 5 23 58 9 58 -5 0 -15 -7 -22
-15z"></path>
<path d="M1677 2733 c-11 -10 -8 -41 4 -49 16 -9 41 20 33 39 -6 17 -25 22
-37 10z"></path>
<path d="M2344 2725 c-4 -8 -3 -22 0 -31 5 -13 9 -14 21 -4 8 7 15 21 15 31 0
23 -28 25 -36 4z"></path>
<path d="M1306 2523 c-12 -13 -6 -53 9 -53 9 0 15 9 15 24 0 26 -12 40 -24 29z"></path>
<path d="M1491 2521 c-18 -11 -10 -45 12 -49 12 -3 17 3 17 22 0 29 -10 38
-29 27z"></path>
<path d="M1686 2523 c-11 -11 -6 -23 9 -23 8 0 15 4 15 9 0 13 -16 22 -24 14z"></path>
<path d="M2257 2523 c-13 -12 -7 -53 7 -53 17 0 28 24 20 45 -7 16 -17 19 -27
8z"></path>
<path d="M2441 2516 c-16 -19 -7 -46 14 -46 22 0 30 29 13 46 -13 13 -16 13
-27 0z"></path>
<path d="M2636 2523 c-11 -11 -6 -23 9 -23 8 0 15 4 15 9 0 13 -16 22 -24 14z"></path>
<path d="M1294 2075 c-8 -21 3 -48 19 -43 19 7 22 58 2 58 -8 0 -18 -7 -21
-15z"></path>
<path d="M724 2076 c-8 -22 3 -49 19 -43 6 2 12 14 12 27 0 27 -22 39 -31 16z"></path>
<path d="M1113 2053 c-18 -6 -16 -23 1 -23 17 0 30 16 19 23 -5 2 -14 2 -20 0z"></path>
<path d="M1770 1845 c0 -16 6 -25 15 -25 9 0 15 9 15 25 0 16 -6 25 -15 25 -9
0 -15 -9 -15 -25z"></path>
<path d="M2720 1844 c0 -33 33 -30 38 4 3 17 -2 22 -17 22 -16 0 -21 -6 -21
-26z"></path>
<path d="M3006 1853 c-8 -19 8 -38 23 -29 16 10 13 46 -3 46 -8 0 -17 -8 -20
-17z"></path>
<path d="M1206 1873 c-12 -12 -5 -23 14 -23 11 0 20 4 20 9 0 11 -26 22 -34
14z"></path>
<path d="M1674 1855 c-7 -18 3 -35 21 -35 15 0 24 19 18 38 -6 17 -32 15 -39
-3z"></path>
<path d="M1865 1830 c-3 -5 3 -10 14 -10 12 0 21 5 21 10 0 6 -6 10 -14 10 -8
0 -18 -4 -21 -10z"></path>
<path d="M2825 1870 c-9 -15 -1 -23 21 -18 15 3 16 4 1 16 -11 9 -17 10 -22 2z"></path>
<path d="M2910 1830 c0 -5 6 -10 14 -10 8 0 18 5 21 10 3 6 -3 10 -14 10 -12
0 -21 -4 -21 -10z"></path>
<path d="M3395 1870 c-9 -15 -1 -23 21 -18 15 3 16 4 1 16 -11 9 -17 10 -22 2z"></path>
<path d="M2247 1643 c-11 -10 -8 -41 4 -49 16 -9 43 21 36 40 -7 16 -28 21
-40 9z"></path>
<path d="M2537 1614 c-4 -4 -4 -10 -1 -15 6 -10 34 0 34 12 0 10 -24 12 -33 3z"></path>
<path d="M4347 1643 c-4 -3 -7 -17 -7 -30 0 -35 34 -26 38 10 3 26 -14 37 -31
20z"></path>
<path d="M4532 1623 c4 -36 33 -39 33 -3 0 16 -6 26 -18 28 -15 3 -18 -2 -15
-25z"></path>
<path d="M4725 1640 c-3 -5 3 -10 15 -10 12 0 18 5 15 10 -3 6 -10 10 -15 10
-5 0 -12 -4 -15 -10z"></path>
<path d="M1680 1426 c-14 -18 -6 -50 13 -44 15 6 22 37 10 49 -6 6 -15 4 -23
-5z"></path>
<path d="M447 1433 c-13 -12 -7 -53 7 -53 17 0 28 24 20 45 -7 16 -17 19 -27
8z"></path>
<path d="M1397 1434 c-13 -13 -7 -24 14 -24 11 0 19 5 17 12 -5 14 -22 21 -31
12z"></path>
<path d="M1587 1434 c-4 -4 -7 -18 -7 -31 0 -18 5 -24 18 -21 10 2 17 12 17
27 0 24 -15 37 -28 25z"></path>
<path d="M1777 1434 c-13 -13 -7 -24 14 -24 11 0 19 5 17 12 -5 14 -22 21 -31
12z"></path>
</g>
</svg>